<svg width="94" height="94" viewBox="0 0 94 94" fill="none" xmlns="http://www.w3.org/2000/svg">
<path d="M47 94C72.9574 94 94 72.9574 94 47C94 21.0426 72.9574 0 47 0C21.0426 0 0 21.0426 0 47C0 72.9574 21.0426 94 47 94Z" fill="#EFEFEF"/>
<mask id="mask0_2_6912" style="mask-type:luminance" maskUnits="userSpaceOnUse" x="0" y="0" width="94" height="94">
<path d="M47 94C72.9574 94 94 72.9574 94 47C94 21.0426 72.9574 0 47 0C21.0426 0 0 21.0426 0 47C0 72.9574 21.0426 94 47 94Z" fill="white"/>
</mask>
<g mask="url(#mask0_2_6912)">
<path d="M47.3797 17.59C47.3797 17.59 45.5497 11.36 38.2097 12.36C38.2097 12.36 30.6597 12.53 29.2597 21.57C29.2597 21.57 28.5197 32.29 25.1797 38.65C25.1797 38.65 19.4997 47.67 25.1797 54.38C25.1797 54.38 29.9297 58.86 27.8597 64.89C27.8597 64.89 22.6697 73.84 25.6797 77.86L51.0197 73.96L47.3897 17.58L47.3797 17.59Z" fill="url(#paint0_linear_2_6912)"/>
<path d="M58.9899 55.56V51.55H40.4699V55.56C41.1599 61.83 39.3499 66.53 36.3499 68.75C34.3899 70.15 32.2199 71.23 29.9199 71.95C32.3799 81.8 51.5899 80.35 51.5899 80.35C64.4299 80.65 70.4899 72.53 70.4899 72.53C67.2899 71.8 64.3399 70.25 61.9399 68.02C58.0199 63.9 58.9999 55.56 58.9999 55.56H58.9899Z" fill="url(#paint1_radial_2_6912)"/>
<path d="M69.7898 38.86C71.0198 41.14 69.9798 45.26 66.7898 46.23C64.3698 46.89 62.9598 45.71 61.7298 43.43C60.4998 41.15 61.4998 38.9 63.7498 37.4C66.3498 35.85 68.5698 36.58 69.7898 38.86Z" fill="url(#paint2_radial_2_6912)"/>
<path d="M29.5599 38.86C28.3299 41.14 29.3699 45.26 32.5599 46.23C34.9799 46.89 36.3899 45.71 37.6199 43.43C38.8499 41.15 37.8499 38.9 35.5999 37.4C32.9999 35.85 30.7899 36.58 29.5599 38.86Z" fill="url(#paint3_radial_2_6912)"/>
<path d="M66.0099 40.72C66.0099 49.91 58.7599 59.46 49.8099 59.46C40.8599 59.46 33.6099 49.91 33.6099 40.72V36.7C33.4899 27.63 40.7399 20.18 49.8099 20.06C58.8799 20.18 66.1299 27.63 66.0099 36.7V40.72Z" fill="url(#paint4_radial_2_6912)"/>
<path d="M55.29 25.78C55.29 25.78 56.48 25.04 58.83 28.2C58.83 28.2 65.14 39.31 67.95 36.4C67.95 36.4 60.03 20.72 55.29 25.78Z" fill="#3D1E16"/>
<path d="M56.1601 25.63C56.1601 25.63 47.7501 31.57 40.5901 34.28C36.7401 36.38 31.6301 35.97 30.6701 35.51C30.6701 35.51 30.5401 25.22 36.8201 19.33C42.0001 14.14 51.3301 12.92 57.8601 16.83C57.8601 16.83 67.5601 18.77 68.6001 34.49C68.6001 34.49 68.2601 41.28 61.9101 31.67C59.4701 27.42 59.9201 27.25 58.5801 26.1C57.2301 24.8 56.1701 25.64 56.1701 25.64L56.1601 25.63Z" fill="url(#paint5_linear_2_6912)"/>
<path d="M45.9596 39.27C45.9596 40.18 45.4296 40.92 44.7796 40.92C44.1296 40.92 43.5996 40.18 43.5996 39.27C43.5996 38.36 44.1296 37.62 44.7796 37.62C45.4296 37.62 45.9596 38.36 45.9596 39.27Z" fill="url(#paint6_radial_2_6912)"/>
<path opacity="0.3" d="M44.7797 38.79C44.7297 39.01 44.5197 39.14 44.2997 39.09C44.0797 39.04 43.9497 38.83 43.9997 38.61C44.0397 38.42 44.2097 38.29 44.3997 38.3C44.6397 38.33 44.8097 38.55 44.7897 38.79H44.7797Z" fill="white"/>
<path d="M56.0993 39.27C56.0993 40.18 55.5693 40.92 54.9193 40.92C54.2693 40.92 53.7393 40.18 53.7393 39.27C53.7393 38.36 54.2693 37.62 54.9193 37.62C55.5693 37.62 56.0993 38.36 56.0993 39.27Z" fill="url(#paint7_radial_2_6912)"/>
<path opacity="0.3" d="M54.9193 38.79C54.8693 39.01 54.6593 39.14 54.4393 39.09C54.2193 39.04 54.0893 38.83 54.1393 38.61C54.1793 38.42 54.3493 38.29 54.5393 38.3C54.7793 38.33 54.9493 38.55 54.9293 38.79H54.9193Z" fill="white"/>
<path d="M51.4493 41.28C51.6293 42.52 51.4493 43.55 49.8293 43.55C48.5293 43.55 48.0293 42.52 48.2093 41.28C48.3893 40.01 48.9393 39.02 49.8293 39.02C50.7193 39.02 51.2693 40.01 51.4493 41.29V41.28Z" fill="url(#paint8_radial_2_6912)"/>
<path d="M32.0693 73.11C32.0693 73.11 43.2293 76.56 49.3193 76.72C49.3193 76.72 60.1293 76.34 65.5693 72.74C65.5693 72.74 58.5893 78.98 48.9893 78.49C48.9893 78.49 38.7693 77.93 32.0693 73.12V73.11Z" fill="#D6AAA7"/>
<path d="M105.87 106.15C102.42 93.73 85.2397 79.28 85.2397 79.28C80.4597 74.73 73.5697 72.58 73.1497 72.42C69.5497 71.5 66.6297 70.54 66.6297 70.54C51.5097 82.96 30.8397 71.3 30.8397 71.3C28.8597 71.94 19.9497 74.97 16.0397 80.42C16.0397 80.42 -2.1503 102.09 -5.6003 114.51C-5.6003 114.51 -9.5603 122.34 -5.8803 127.63C-0.580297 135.26 2.1697 134.03 7.3797 127.63C7.3797 127.63 12.1997 123.67 22.7797 105.41C24.7597 114.7 26.1497 131.04 26.1497 131.04C54.2897 134.87 73.8297 130.24 73.8297 130.24C74.0397 125.59 74.6697 109.57 76.0297 102.61C89.8497 117.61 98.1097 122.33 98.1097 122.33C114.65 125.42 105.87 106.15 105.87 106.15Z" fill="url(#paint9_linear_2_6912)"/>
<path d="M65.7799 35.88C65.7799 35.88 66.1999 37.17 65.6299 44.43C65.6299 44.43 67.2899 41.5 67.5599 35.43L65.7899 35.88H65.7799Z" fill="url(#paint10_linear_2_6912)"/>
<path d="M33.8601 35.88C33.8601 35.88 33.4401 37.17 34.0101 44.43C34.0101 44.43 32.3501 41.5 32.0801 35.43L33.8501 35.88H33.8601Z" fill="url(#paint11_linear_2_6912)"/>
<path d="M46.3599 45.28H53.2599C53.2599 45.28 53.7499 45.35 53.4299 45.9C53.4299 45.9 52.7198 47.91 49.7698 47.78C49.7698 47.78 46.7399 47.9 46.0799 45.81C45.9999 45.61 46.0899 45.38 46.2899 45.3C46.3099 45.3 46.3298 45.28 46.3498 45.28H46.3599Z" fill="#250000"/>
<path d="M46.3599 45.28H53.3199C53.4399 45.45 53.4399 45.68 53.3199 45.85H46.4299C46.4299 45.85 46.1199 45.69 46.3599 45.28Z" fill="#F3ECE4"/>
<path d="M53.1398 45.28H46.3598L46.2898 45.43H53.3898C53.3898 45.43 53.4198 45.28 53.1298 45.28H53.1398Z" fill="url(#paint12_linear_2_6912)"/>
<path d="M49.9199 46.55C48.9599 46.51 48.0099 46.72 47.1499 47.14C47.9599 47.58 48.8699 47.81 49.7899 47.79C50.7299 47.88 51.6799 47.63 52.4599 47.11C51.6699 46.72 50.7999 46.53 49.9199 46.55Z" fill="url(#paint13_radial_2_6912)"/>
<path d="M83.5801 94.46C83.5801 94.46 87.3701 107.63 91.8901 116.24C91.8901 116.24 102.13 127.73 107.07 117.61L90.8301 93.59L83.5801 94.46Z" fill="#CED0D8"/>
<path d="M93.6295 87.01C93.6295 87.01 102.66 99.66 106.78 107.91C106.78 107.91 110.61 116.94 103.72 120.01C103.72 120.01 98.4195 122.43 93.4795 114.99C93.4795 114.99 86.0195 100.67 86.0195 93.6L93.6195 87.02L93.6295 87.01Z" fill="url(#paint14_linear_2_6912)"/>
<path d="M86.3993 77.87C84.1193 78.12 81.9193 78.86 79.9493 80.03C79.9493 80.03 74.7993 82.15 78.8993 86.77C78.8993 86.77 78.0093 89.3 81.9593 91.62C81.9593 91.62 83.1393 96.24 87.5493 96C89.4493 95.47 91.0293 94.15 91.8893 92.37L86.3993 77.87Z" fill="#CED0D8"/>
<path d="M86.5594 75.62C86.5594 75.62 90.6294 75.39 90.2594 79.43C92.3594 80.09 93.5794 82.29 93.0294 84.42C93.0294 84.42 95.8694 85.25 94.0294 88.83C94.0294 88.83 95.7494 89.39 94.1294 91.93C92.4594 93.72 90.2594 94.93 87.8594 95.37C85.0494 94.91 86.3194 93.73 84.9694 93.43C84.9694 93.43 81.7094 92.04 83.5494 89.6C82.4994 90.07 81.2694 89.75 80.5694 88.83C80.5694 88.83 79.1494 87.46 80.7994 85.2C80.7994 85.2 78.5994 86.14 78.0694 83.96C78.0694 83.96 77.7794 81.78 81.1894 79.12C81.1894 79.12 84.2894 75.88 86.5694 75.62H86.5594Z" fill="url(#paint15_linear_2_6912)"/>
<path d="M86.7394 81.42C82.0994 84.42 82.1994 84.35 80.8494 85.27C82.3194 83.53 84.0894 82.07 86.0794 80.95C86.0794 80.95 87.2294 80.07 86.7494 81.42H86.7394Z" fill="#E57676"/>
<path d="M89.4794 85.46C89.4794 85.46 84.7694 88.51 83.5894 89.31C85.0594 87.57 86.8294 86.11 88.8194 85C88.8194 85 89.9694 84.12 89.4894 85.47L89.4794 85.46Z" fill="#E57676"/>
<path d="M90.7393 90.52C90.7393 90.52 86.9793 92.95 86.0393 93.59C87.2093 92.2 88.6193 91.04 90.2093 90.15C90.2093 90.15 91.1293 89.45 90.7393 90.52Z" fill="#E57676"/>
<g opacity="0.7">
<path d="M49.0697 93.87C48.9997 93.87 48.9198 93.84 48.8698 93.79C41.5198 86.57 33.2798 70.04 33.1998 69.87C33.1398 69.73 33.1997 69.56 33.3497 69.5C33.4797 69.45 33.6298 69.5 33.6998 69.62C33.7798 69.79 41.9898 86.24 49.2598 93.39C49.3698 93.5 49.3698 93.67 49.2598 93.78C49.2098 93.83 49.1297 93.86 49.0597 93.86L49.0697 93.87Z" fill="#CED0D8"/>
</g>
<path d="M49.6298 93.87C49.5598 93.87 49.4798 93.84 49.4298 93.79C42.0898 86.57 33.8398 70.04 33.7598 69.87C33.6898 69.73 33.7498 69.56 33.8898 69.5C34.0298 69.44 34.1998 69.49 34.2598 69.63C34.3398 69.8 42.5498 86.25 49.8198 93.4C49.9298 93.51 49.9298 93.68 49.8198 93.79C49.7698 93.84 49.6898 93.87 49.6198 93.87H49.6298Z" fill="#7F94A5"/>
<g opacity="0.7">
<path d="M51.0095 93.67C50.8595 93.67 50.7295 93.54 50.7295 93.39C50.7295 93.33 50.7495 93.26 50.7895 93.21C58.0895 84.46 64.2995 70.33 64.3595 70.19C64.4195 70.05 64.5895 69.99 64.7295 70.05C64.8695 70.11 64.9295 70.28 64.8695 70.42C64.8095 70.56 58.5695 84.76 51.2195 93.58C51.1695 93.64 51.0895 93.68 51.0095 93.68V93.67Z" fill="#CED0D8"/>
</g>
<path d="M50.74 93.1101C50.59 93.1101 50.46 92.9801 50.46 92.8301C50.46 92.7701 50.48 92.7 50.52 92.65C57.82 83.9 64.03 69.77 64.09 69.63C64.15 69.49 64.32 69.42 64.46 69.49C64.6 69.56 64.67 69.72 64.6 69.86C64.54 70 58.3 84.2001 50.95 93.0201C50.9 93.0801 50.82 93.12 50.74 93.12V93.1101Z" fill="#7F94A5"/>
<path d="M60.3101 93.59H40.3301V118.8H60.3101V93.59Z" fill="#D6D9E5"/>
<g opacity="0.5">
<path d="M59.4196 117.85H40.8896V93.8801H59.4196V117.85ZM41.1296 117.62H59.1897V94.1201H41.1296V117.62Z" fill="url(#paint16_linear_2_6912)"/>
</g>
<path d="M51.5996 92.36H48.8196V96.34H51.5996V92.36Z" fill="#BFBFBF"/>
<path d="M56.5 35H54V36H56L57.5 36.5L56.5 35Z" fill="url(#paint17_linear_2_6912)"/>
<path d="M43 35H45.5V36H43.5L42 36.5L43 35Z" fill="url(#paint18_linear_2_6912)"/>
</g>
<defs>
<linearGradient id="paint0_linear_2_6912" x1="35.3341" y1="42.9996" x2="13.2055" y2="42.9996" gradientUnits="userSpaceOnUse">
<stop stop-color="#482934"/>
<stop offset="0.37" stop-color="#684334"/>
<stop offset="0.69" stop-color="#684334"/>
<stop offset="0.85" stop-color="#4C2C30"/>
<stop offset="0.99" stop-color="#462530"/>
</linearGradient>
<radialGradient id="paint1_radial_2_6912" cx="0" cy="0" r="1" gradientUnits="userSpaceOnUse" gradientTransform="translate(50 83) rotate(-90) scale(39 81.5)">
<stop stop-color="#F6DCDB"/>
<stop stop-color="#E4AEAD"/>
<stop stop-color="#D598A9"/>
<stop offset="0.4" stop-color="#EDBDC7"/>
<stop offset="0.97" stop-color="#BA7F8C"/>
</radialGradient>
<radialGradient id="paint2_radial_2_6912" cx="0" cy="0" r="1" gradientUnits="userSpaceOnUse" gradientTransform="translate(334.58 899.791) rotate(-34.06) scale(5.0133 4.4982)">
<stop stop-color="#BA7F8C"/>
<stop offset="0.28" stop-color="#D598A9"/>
<stop offset="0.5" stop-color="#E4AEAD"/>
<stop offset="0.63" stop-color="#EDBDC7"/>
<stop offset="0.82" stop-color="#F6DCDB"/>
<stop offset="1" stop-color="#D598A9"/>
</radialGradient>
<radialGradient id="paint3_radial_2_6912" cx="0" cy="0" r="1" gradientUnits="userSpaceOnUse" gradientTransform="translate(37 48) rotate(-132.614) scale(16.9853 15.2401)">
<stop stop-color="#BA7F8C"/>
<stop offset="0.28" stop-color="#D598A9"/>
<stop offset="0.5" stop-color="#E4AEAD"/>
<stop offset="0.63" stop-color="#EDBDC7"/>
<stop offset="0.82" stop-color="#F6DCDB"/>
<stop offset="1" stop-color="#D598A9"/>
</radialGradient>
<radialGradient id="paint4_radial_2_6912" cx="0" cy="0" r="1" gradientUnits="userSpaceOnUse" gradientTransform="translate(50 40) scale(19.5 24.6076)">
<stop stop-color="#F6DCDB"/>
<stop offset="0.296875" stop-color="#EDBDC7"/>
<stop offset="0.583333" stop-color="#E4AEAD"/>
<stop offset="0.87" stop-color="#D598A9"/>
<stop offset="0.97" stop-color="#BA7F8C"/>
</radialGradient>
<linearGradient id="paint5_linear_2_6912" x1="30.2761" y1="26.2763" x2="68.1961" y2="26.2763" gradientUnits="userSpaceOnUse">
<stop stop-color="#482934"/>
<stop offset="0.37" stop-color="#684334"/>
<stop offset="0.69" stop-color="#684334"/>
<stop offset="0.85" stop-color="#4C2C30"/>
<stop offset="0.99" stop-color="#462530"/>
</linearGradient>
<radialGradient id="paint6_radial_2_6912" cx="0" cy="0" r="1" gradientUnits="userSpaceOnUse" gradientTransform="translate(213.834 109.525) scale(1.452 1.8304)">
<stop stop-color="#584D4E"/>
<stop offset="0.51" stop-color="#362122"/>
<stop offset="1" stop-color="#07070B"/>
</radialGradient>
<radialGradient id="paint7_radial_2_6912" cx="0" cy="0" r="1" gradientUnits="userSpaceOnUse" gradientTransform="translate(223.413 2284.04) scale(1.452 1.8304)">
<stop stop-color="#584D4E"/>
<stop offset="0.51" stop-color="#362122"/>
<stop offset="1" stop-color="#07070B"/>
</radialGradient>
<radialGradient id="paint8_radial_2_6912" cx="0" cy="0" r="1" gradientUnits="userSpaceOnUse" gradientTransform="translate(80.8848 -93.5574) scale(2.4462 3.3696)">
<stop offset="0.17" stop-color="#F6D9D6"/>
<stop offset="0.47" stop-color="#EDB4B3"/>
<stop offset="0.68" stop-color="#E4A6A5"/>
<stop offset="0.87" stop-color="#D09392"/>
<stop offset="1" stop-color="#C17E70"/>
</radialGradient>
<linearGradient id="paint9_linear_2_6912" x1="-6.6299" y1="98.9412" x2="109.01" y2="98.9412" gradientUnits="userSpaceOnUse">
<stop stop-color="#F9F8F8"/>
<stop offset="0.51" stop-color="#ECEFF2"/>
<stop offset="1" stop-color="#D3CFD5"/>
</linearGradient>
<linearGradient id="paint10_linear_2_6912" x1="66.3074" y1="44.8" x2="66.3074" y2="32.92" gradientUnits="userSpaceOnUse">
<stop stop-color="#684334"/>
<stop offset="0.23" stop-color="#684334"/>
<stop offset="0.54" stop-color="#4C2C30"/>
<stop offset="0.99" stop-color="#462530"/>
</linearGradient>
<linearGradient id="paint11_linear_2_6912" x1="32.986" y1="44.89" x2="32.986" y2="34.09" gradientUnits="userSpaceOnUse">
<stop stop-color="#684334"/>
<stop offset="0.23" stop-color="#684334"/>
<stop offset="0.54" stop-color="#4C2C30"/>
<stop offset="0.99" stop-color="#462530"/>
</linearGradient>
<linearGradient id="paint12_linear_2_6912" x1="49.3407" y1="43.685" x2="49.3407" y2="43.304" gradientUnits="userSpaceOnUse">
<stop offset="0.22" stop-color="#F4DFD1"/>
<stop offset="0.7" stop-color="#DABDB8"/>
<stop offset="1" stop-color="#D4ACAA"/>
</linearGradient>
<radialGradient id="paint13_radial_2_6912" cx="0" cy="0" r="1" gradientUnits="userSpaceOnUse" gradientTransform="translate(-21.5165 -127.086) scale(2.4304 0.725199)">
<stop offset="0.23" stop-color="#D22224"/>
<stop offset="0.73" stop-color="#E22F31"/>
<stop offset="1" stop-color="#5D1C1B"/>
</radialGradient>
<linearGradient id="paint14_linear_2_6912" x1="-130.303" y1="307.045" x2="-144.031" y2="312.194" gradientUnits="userSpaceOnUse">
<stop offset="0.19" stop-color="#E3C9CA"/>
<stop offset="0.4" stop-color="#E8B4C0"/>
<stop offset="0.53" stop-color="#E4A7AD"/>
<stop offset="0.74" stop-color="#D598A9"/>
<stop offset="0.97" stop-color="#B87E85"/>
</linearGradient>
<linearGradient id="paint15_linear_2_6912" x1="472.873" y1="476.311" x2="483.331" y2="483.896" gradientUnits="userSpaceOnUse">
<stop offset="0.19" stop-color="#E3C9CA"/>
<stop offset="0.4" stop-color="#E8B4C0"/>
<stop offset="0.53" stop-color="#E4A7AD"/>
<stop offset="0.74" stop-color="#D598A9"/>
<stop offset="0.97" stop-color="#B87E85"/>
</linearGradient>
<linearGradient id="paint16_linear_2_6912" x1="60.9423" y1="105.958" x2="40.5593" y2="105.958" gradientUnits="userSpaceOnUse">
<stop stop-color="#AAA5D9"/>
<stop offset="1" stop-color="white"/>
</linearGradient>
<linearGradient id="paint17_linear_2_6912" x1="59.5" y1="38" x2="54" y2="34.5" gradientUnits="userSpaceOnUse">
<stop stop-color="#473C37"/>
<stop offset="1" stop-color="#694435"/>
</linearGradient>
<linearGradient id="paint18_linear_2_6912" x1="40" y1="38" x2="45.5" y2="34.5" gradientUnits="userSpaceOnUse">
<stop stop-color="#473C37"/>
<stop offset="1" stop-color="#694435"/>
</linearGradient>
</defs>
</svg>
