<svg width="110" height="20" viewBox="0 0 110 20" fill="none" xmlns="http://www.w3.org/2000/svg">
<g clip-path="url(#clip0_952_5022)">
<path d="M0.457764 0.588135H109.714V4.02284H0.457764V0.588135Z" fill="#C52922"/>
<path d="M2.53679 15.844C2.60675 16.4941 2.43441 17.1473 2.0544 17.6723C1.57939 18.0697 0.998402 18.3102 0.387784 18.3623L0.286377 18.3788L0.752728 19.6335L0.818617 19.6235C1.68806 19.5325 2.5049 19.153 3.14523 18.5423C3.75287 17.8042 4.05114 16.8491 3.97482 15.8858V6.95581H2.53679V15.844Z" fill="#030303"/>
<path d="M11.6864 12.3452C11.7382 13.1025 11.5197 13.8531 11.0716 14.457C10.603 14.9148 9.98086 15.1702 9.33398 15.1702C8.68709 15.1702 8.06495 14.9148 7.59631 14.457C7.14813 13.8532 6.92959 13.1025 6.98157 12.3452V6.95581H5.53038V12.2499C5.49043 12.8109 5.55866 13.3745 5.7312 13.9084C5.90373 14.4422 6.17718 14.9359 6.53585 15.3611C7.32001 16.0366 8.31091 16.4069 9.33453 16.4069C10.3582 16.4069 11.3491 16.0366 12.1332 15.3611C12.4917 14.9358 12.765 14.4421 12.9374 13.9082C13.1098 13.3744 13.178 12.8109 13.1381 12.2499V6.95581H11.6864V12.3452Z" fill="#030303"/>
<path d="M21.5399 12.0976L21.576 14.2217L16.1849 6.98875L16.1603 6.95581H14.6953V16.2235H16.0789V11.447L16.0056 8.93699L21.4087 16.1905L21.4334 16.2235H22.9367V6.9564H21.5399V12.0976Z" fill="#030303"/>
<path d="M28.9403 12.5992H31.2405V14.7857C30.5691 15.127 29.826 15.2929 29.0772 15.2686C28.6376 15.2822 28.1999 15.2046 27.7901 15.0405C27.3804 14.8763 27.0072 14.629 26.6927 14.3133C26.3748 13.9783 26.1271 13.5799 25.965 13.1427C25.8029 12.7055 25.7298 12.2389 25.7503 11.7716C25.718 10.834 26.045 9.92081 26.6612 9.22805C26.9745 8.89518 27.353 8.63435 27.7718 8.46278C28.1905 8.29121 28.6399 8.21281 29.0904 8.23276C30.0752 8.21985 31.0371 8.53844 31.8289 9.13982L31.9068 9.19864L32.4986 8.02217L32.4413 7.97864C31.4615 7.27485 30.2861 6.91558 29.0909 6.95452C27.8283 6.92641 26.6061 7.41286 25.6918 8.30747C25.235 8.75127 24.8748 9.28922 24.6348 9.88602C24.3948 10.4828 24.2803 11.125 24.2991 11.7704C24.2647 12.4231 24.3651 13.0758 24.5936 13.6858C24.822 14.2959 25.1735 14.8495 25.6248 15.3104C26.5247 16.1659 27.7161 16.6242 28.942 16.5863C30.2555 16.634 31.5476 16.2346 32.6172 15.4504L32.6505 15.4245V11.3775H28.9403V12.5992Z" fill="#030303"/>
<path d="M44.4954 6.95654H42.8471L38.6379 12.4507V6.95654H37.2319V18.5448H38.6379V14.6471L39.8914 12.9524L43.3381 18.5442H44.9371L40.8327 11.7842L44.4954 6.95654Z" fill="#030303"/>
<path d="M56.4264 6.9563L54.2098 14.6169L51.9279 6.9563H50.6543L48.4961 14.6034L46.5362 6.9563H44.9675L47.5164 16.2239H49.3584L51.2857 9.58454L53.1998 16.2239H55.052L57.9028 6.9563H56.4264Z" fill="#030303"/>
<path d="M60.3166 6.95581L56.6648 16.2235H58.0747L59.1707 13.4664H62.9125L64.0623 16.2235H65.4745L61.7391 6.95581H60.3166ZM61.0613 8.41464L62.4398 12.204H59.6594L61.051 8.41464H61.0613Z" fill="#030303"/>
<path d="M73.0518 12.0975L73.0879 14.2216L67.6704 6.9563H66.2078V16.2239H67.5914V11.4475L67.518 8.93748L72.9464 16.2239H74.4497V6.9563H73.0518V12.0975Z" fill="#030303"/>
<path d="M97.8179 12.0975L97.8541 14.2216L92.4612 6.9916L92.4365 6.95865H90.9739V16.2263H92.3575V11.4498L92.2841 8.93983L97.6873 16.1934L97.7125 16.2263H99.2159V6.9563H97.8191L97.8179 12.0975Z" fill="#030303"/>
<path d="M85.0827 6.95581L81.4309 16.2235H82.8409L83.9369 13.4664H87.6786L88.8284 16.2235H90.2407L86.5053 6.95581H85.0827ZM85.8275 8.41464L87.2065 12.204H84.4261L85.8178 8.41464H85.8275Z" fill="#030303"/>
<path d="M79.0343 15.844C79.1043 16.4941 78.932 17.1473 78.552 17.6723C78.0769 18.0697 77.4959 18.3102 76.8853 18.3623L76.7839 18.3788L77.2503 19.6335L77.3156 19.6235C78.185 19.5325 79.0019 19.153 79.6422 18.5423C80.2498 17.8042 80.5481 16.8491 80.4718 15.8858V6.95581H79.0343V15.844Z" fill="#030303"/>
<path d="M105.218 12.5992H107.518V14.7857C106.847 15.127 106.104 15.2929 105.355 15.2686C104.915 15.2822 104.477 15.2046 104.068 15.0405C103.658 14.8763 103.285 14.629 102.97 14.3133C102.652 13.9783 102.405 13.5799 102.243 13.1427C102.081 12.7055 102.007 12.2389 102.028 11.7716C101.996 10.834 102.323 9.92081 102.939 9.22805C103.252 8.89518 103.631 8.63435 104.049 8.46278C104.468 8.29121 104.918 8.21281 105.368 8.23276C106.353 8.21985 107.315 8.53844 108.107 9.13982L108.184 9.19864L108.776 8.02217L108.719 7.97864C107.739 7.27485 106.564 6.91558 105.369 6.95452C104.106 6.92648 102.884 7.41292 101.969 8.30747C101.513 8.75127 101.152 9.28922 100.912 9.88602C100.672 10.4828 100.558 11.125 100.577 11.7704C100.542 12.4231 100.643 13.0758 100.871 13.6859C101.1 14.2959 101.451 14.8495 101.902 15.3104C102.802 16.1659 103.994 16.6242 105.22 16.5863C106.533 16.6341 107.826 16.2348 108.895 15.4504L108.929 15.4245V11.3775H105.218V12.5992Z" fill="#030303"/>
</g>
<defs>
<clipPath id="clip0_952_5022">
<rect width="110" height="20" fill="white"/>
</clipPath>
</defs>
</svg>
